<svg xmlns="http://www.w3.org/2000/svg" width="57" height="56" viewBox="0 0 57 56"><g id="KDLAUNCH" transform="translate(-805 -6237)"><g id="Group_71532" data-name="Group 71532" transform="translate(805 6237)"><path id="Path_64962" fill="#fff" d="M6.476,7.6v6.678H0v3.636H.01v6.7H3.589v-6.7h6.462V7.6Z" data-name="Path 64962" transform="translate(0 5.7)"/><path id="Path_64963" fill="#fff" d="M33.718,14.967v6.682H27.246v3.633h.01v6.7h3.577v-6.7H37.3V14.967Z" data-name="Path 64963" transform="translate(19.703 11.225)"/><path id="Path_64964" fill="#fff" d="M10.361,18.584v6.68H3.891v3.631H3.9v6.7H7.477v-6.7h6.465V18.584Z" data-name="Path 64964" transform="translate(2.814 13.938)"/><path id="Path_64965" fill="#fff" d="M29.822,3.75v6.683H23.348v3.631h.01v6.7h3.579v-6.7H33.4V3.75Z" data-name="Path 64965" transform="translate(16.884 2.812)"/><path id="Path_64966" fill="#fff" d="M15.272,0V6.68h6.476v3.635h-.014v6.7H18.157v-6.7H11.695V0Z" data-name="Path 64966" transform="translate(8.457)"/><path id="Path_64967" fill="#fff" d="M40.108,15.048H33.529v6.575H29.952v-.01h-6.6V17.981h6.6V11.415H40.108Z" data-name="Path 64967" transform="translate(16.887 8.561)"/><path id="Path_64968" fill="#fff" d="M16.758,18.818H10.177v6.576H6.6V25.38H0V21.747H6.6V15.185H16.758Z" data-name="Path 64968" transform="translate(0 11.389)"/><path id="Path_64969" fill="#fff" d="M19.022,22.275v6.683h6.472v3.633h-.01v6.7H21.906v-6.7H15.441V22.275Z" data-name="Path 64969" transform="translate(11.166 16.706)"/><path id="Path_64970" fill="#fff" d="M7.664,29.8H14.61v6.575h3.581v-.011h6.462V32.729H18.191V26.166H7.664Z" data-name="Path 64970" transform="translate(5.542 19.625)"/><path id="Path_64971" fill="#fff" d="M19.555,25.911h6.579v6.573h3.577v-.01h6.75V28.841h-6.75V22.275H19.555Z" data-name="Path 64971" transform="translate(14.141 16.706)"/><path id="Path_64972" fill="#fff" d="M3.758,7.523h6.577V14.1h3.576v-.014H21.05V10.453H13.911V3.892H3.758Z" data-name="Path 64972" transform="translate(2.718 2.919)"/><path id="Path_64973" fill="#fff" d="M21.923,10.208V3.633H15.441V0H25.5V6.563h7.223V10.2" data-name="Path 64973" transform="translate(11.166)"/><path id="Path_64974" fill="#fff" d="M11.169,11.412H7.578v3.647h3.591Z" data-name="Path 64974" transform="translate(5.48 8.559)"/><path id="Path_64975" fill="#fff" d="M26.941,18.787H23.352v3.647h3.589Z" data-name="Path 64975" transform="translate(16.887 14.09)"/><path id="Path_64976" fill="#fff" d="M22.79,7.642H19.2v3.645H22.79Z" data-name="Path 64976" transform="translate(13.884 5.732)"/><path id="Path_64977" fill="#fff" d="M15.286,22.275H11.695v3.647h3.591Z" data-name="Path 64977" transform="translate(8.457 16.706)"/></g></g></svg>