<svg xmlns="http://www.w3.org/2000/svg" width="54" height="54" viewBox="0 0 54 54"><g id="KDSWAP" transform="translate(-135)"><path id="Path_64950" fill="#fff" d="M155.47,6.352V9.529H165V6.352h-6.352V0h-9.529V3.177h6.352Z" data-name="Path 64950" transform="translate(11.294)"/><path id="Path_64951" fill="#fff" d="M162.883,9.176V7.059h-3.177v3.177h3.177Z" data-name="Path 64951" transform="translate(19.765 5.647)"/><path id="Path_64952" fill="#fff" d="M165.706,10.588h-3.177v6.354h-6.352v3.175h9.529V13.765h6.352V10.588Z" data-name="Path 64952" transform="translate(16.942 8.47)"/><path id="Path_64953" fill="#fff" d="M166.058,20.47h-6.352V30h3.177V23.647h6.352V14.118h-3.177Z" data-name="Path 64953" transform="translate(19.765 11.294)"/><path id="Path_64954" fill="#fff" d="M148.765,0h-3.177V3.177h3.177Z" data-name="Path 64954" transform="translate(8.47)"/><path id="Path_64955" fill="#fff" d="M145.236,8.952l.929.931,3.177,3.175h18.13v6.354h3.175V9.883H150.658l-3.175-3.177H157.94V3.529H142.059V19.412h3.177Z" data-name="Path 64955" transform="translate(5.647 2.823)"/><path id="Path_64956" fill="#fff" d="M151.588,27.881V24.706h-9.529v3.175h6.352v6.354h9.529V31.058h-6.352Z" data-name="Path 64956" transform="translate(5.647 19.765)"/><path id="Path_64957" fill="#fff" d="M138.529,22.236v2.117h3.177V21.176h-3.177Z" data-name="Path 64957" transform="translate(2.823 16.941)"/><path id="Path_64958" fill="#fff" d="M150.883,14.118h-9.531V20.47H135v3.177h9.529V17.293h6.354Z" data-name="Path 64958" transform="translate(0 11.294)"/><path id="Path_64959" fill="#fff" d="M138.177,16.588h6.352V7.059h-3.177v6.352H135V22.94h3.177Z" data-name="Path 64959" transform="translate(0 5.647)"/><path id="Path_64960" fill="#fff" d="M155.824,28.235h-3.177v3.177h3.177Z" data-name="Path 64960" transform="translate(14.118 22.588)"/><path id="Path_64961" fill="#fff" d="M167.471,28.107,163.364,24H145.236V17.647h-3.177v9.529h19.989l3.175,3.177H154.765V33.53h15.881V17.647h-3.175Z" data-name="Path 64961" transform="translate(5.647 14.118)"/></g></svg>