<svg xmlns="http://www.w3.org/2000/svg" width="32" height="56" viewBox="0 0 32 56"><g id="KONGS" transform="translate(370.553 -278.639)"><rect id="Rectangle_12271" width="2.329" height="28.082" fill="#fff" data-name="Rectangle 12271" transform="translate(-368.224 306.529)"/><rect id="Rectangle_12272" width="2.329" height="9.78" fill="#fff" data-name="Rectangle 12272" transform="translate(-370.553 299.324)"/><rect id="Rectangle_12273" width="2.329" height="2.37" fill="#fff" data-name="Rectangle 12273" transform="translate(-368.224 299.324)"/><rect id="Rectangle_12274" width="2.329" height="4.807" fill="#fff" data-name="Rectangle 12274" transform="translate(-368.224 292.105)"/><rect id="Rectangle_12275" width="2.329" height="2.474" fill="#fff" data-name="Rectangle 12275" transform="translate(-365.895 289.631)"/><rect id="Rectangle_12276" width="19.151" height="2.474" fill="#fff" data-name="Rectangle 12276" transform="translate(-363.565 287.156)"/><rect id="Rectangle_12277" width="2.329" height="4.807" fill="#fff" data-name="Rectangle 12277" transform="translate(-342.085 292.105)"/><rect id="Rectangle_12278" width="2.329" height="13.372" fill="#fff" data-name="Rectangle 12278" transform="translate(-342.085 306.687)"/><rect id="Rectangle_12279" width="2.329" height="2.474" fill="#fff" data-name="Rectangle 12279" transform="translate(-344.414 289.631)"/><rect id="Rectangle_12280" width="2.329" height="2.474" fill="#fff" data-name="Rectangle 12280" transform="translate(-344.414 320.059)"/><rect id="Rectangle_12281" width="2.329" height="2.474" fill="#fff" data-name="Rectangle 12281" transform="translate(-358.705 320.059)"/><rect id="Rectangle_12282" width="2.329" height="2.474" fill="#fff" data-name="Rectangle 12282" transform="translate(-353.99 307.867)"/><rect id="Rectangle_12283" width="2.329" height="2.474" fill="#fff" data-name="Rectangle 12283" transform="translate(-349.206 307.867)"/><rect id="Rectangle_12284" width="11.961" height="2.474" fill="#fff" data-name="Rectangle 12284" transform="translate(-356.375 322.534)"/><rect id="Rectangle_12285" width="11.961" height="2.474" fill="#fff" data-name="Rectangle 12285" transform="translate(-356.375 315.253)"/><rect id="Rectangle_12286" width="2.329" height="4.807" fill="#fff" data-name="Rectangle 12286" transform="translate(-361.034 315.253)"/><rect id="Rectangle_12287" width="2.329" height="9.631" fill="#fff" data-name="Rectangle 12287" transform="translate(-356.375 325.008)"/><path id="Path_64988" fill="#fff" d="M-356.067,390.313v2.412h4.57v7.364h25.1v-9.776Zm16.563,7.3h-9.373v-4.89h9.373Zm10.74,0h-7.982v-4.89h7.982Z" data-name="Path 64988" transform="translate(-12.157 -93.402)"/><path id="Path_64989" fill="#fff" d="M-298.363,278.639v2.5h-2.353v-2.5h-5.929v2.5h-2.38v-2.5h-2.329v7.385h1.1v2.5H-297.2v-2.5h1.165v-7.385Zm-3.444,3.659h-1.227v1.269h1.227v2.4h-1.227v-2.4h-1.277v2.4h-1.227v-4.8h1.227V282.3h1.277v-1.129h1.227Z" data-name="Path 64989" transform="translate(-49.679)"/></g></svg>