<svg xmlns="http://www.w3.org/2000/svg" width="158.143" height="24" viewBox="0 0 158.143 24"><g id="Top_Bar" data-name="Top Bar" transform="translate(106 -7)"><g id="KADDEX-logo" transform="translate(-106 7)"><g id="Group_427" data-name="Group 427"><rect id="Rectangle_11" width="3.189" height="23.589" fill="#fff" data-name="Rectangle 11" transform="translate(0 0.162)"/><path id="Path_898" fill="#fff" d="M-1324.854,1114.257h-4.319l-10.644,10.271h-4.125v3.3h4.328l10.441,10.074h4.318l-11.975-11.559v-.534Z" data-name="Path 898" transform="translate(1349.045 -1114.145)"/><path id="Path_900" fill="#fff" d="M-1024.477,1113.951h-12.071v3.287h12.071a8.556,8.556,0,0,1,8.424,8.686,8.556,8.556,0,0,1-8.424,8.425h-8.882V1120.8h-3.189v16.837h12.071a11.845,11.845,0,0,0,11.532-12.149,11.845,11.845,0,0,0-11.532-11.534Z" data-name="Path 900" transform="translate(1090.793 -1113.888)"/><path id="Path_901" fill="#fff" d="M-856.439,1113.951H-868.51v3.287h12.071a8.556,8.556,0,0,1,8.424,8.686,8.556,8.556,0,0,1-8.424,8.425h-8.882V1120.8h-3.189v16.837h12.071a11.845,11.845,0,0,0,11.532-12.149,11.844,11.844,0,0,0-11.532-11.534Z" data-name="Path 901" transform="translate(949.618 -1113.888)"/><path id="Path_902" fill="#fff" d="M-698.956,1115.182h-.735v13.269h13.2v-3.244h-9.961v-6.782H-675.9v-3.244h-23.058Z" data-name="Path 902" transform="translate(807.787 -1114.922)"/><path id="Path_903" fill="#fff" d="M-696.459,1213.57H-699.7v8.01H-675.9v-3.244h-20.558Z" data-name="Path 903" transform="translate(807.792 -1197.58)"/><path id="Path_904" fill="#fff" d="M-536.354,1114.57h-4.367l9.863,11.669-10.157,12.018h4.367l7.973-9.434,7.973,9.434h4.367Z" data-name="Path 904" transform="translate(674.478 -1114.408)"/><path id="Path_905" fill="#fff" d="M-448.261,1114.57h-4.367l-7.013,8.294,2.184,2.583Z" data-name="Path 905" transform="translate(606.112 -1114.408)"/><path id="Path_899" fill="#ffa900" d="M-1147.135,1244h-13.281v2.9h18.155" data-name="Path 899" transform="translate(1194.859 -1223.141)"/><path id="Path_899-2" fill="#39fffc" d="M-1141.834,1113.607l3.46-.049-.028.056,11.752,23.682-4.874-2.9-8.593-17.326Z" data-name="Path 899" transform="translate(1179.247 -1113.558)"/><path id="Path_899-3" fill="#ed1cb5" d="M-1200.158,1113.636l.028-.056h-3.484l.024.049-11.751,23.682h3.435l10.033-20.217Z" data-name="Path 899" transform="translate(1241.003 -1113.577)"/></g></g></g></svg>